<svg xmlns="http://www.w3.org/2000/svg" width="49.5" height="49.5" viewBox="0 0 49.5 49.5">
  <path id="icon-instagram-fill" data-name="icon-instagram-fill" d="M16.046,1.648c2.639-.122,3.481-.148,10.2-.148s7.564.029,10.2.148A18.214,18.214,0,0,1,42.464,2.8,12.67,12.67,0,0,1,49.7,10.036a18.2,18.2,0,0,1,1.152,6.008c.121,2.644.148,3.485.148,10.206s-.029,7.564-.148,10.2A18.145,18.145,0,0,1,49.7,42.461,12.636,12.636,0,0,1,42.463,49.7a18.2,18.2,0,0,1-6.008,1.152c-2.641.122-3.483.148-10.206.148s-7.565-.029-10.2-.148A18.145,18.145,0,0,1,10.039,49.7a12.143,12.143,0,0,1-4.385-2.853A12.132,12.132,0,0,1,2.8,42.464a18.267,18.267,0,0,1-1.15-6.008C1.527,33.812,1.5,32.971,1.5,26.25s.029-7.565.148-10.2A18.214,18.214,0,0,1,2.8,10.036,12.141,12.141,0,0,1,5.656,5.654,12.132,12.132,0,0,1,10.037,2.8a18.267,18.267,0,0,1,6.007-1.15ZM36.251,6.1c-2.61-.119-3.393-.144-10-.144s-7.391.025-10,.144a13.68,13.68,0,0,0-4.6.853,7.686,7.686,0,0,0-2.846,1.85,7.677,7.677,0,0,0-1.85,2.846,13.68,13.68,0,0,0-.853,4.6c-.119,2.61-.144,3.393-.144,10s.025,7.391.144,10a13.68,13.68,0,0,0,.853,4.6,7.683,7.683,0,0,0,1.849,2.846,7.683,7.683,0,0,0,2.846,1.849,13.68,13.68,0,0,0,4.6.853c2.61.119,3.391.144,10,.144s7.391-.025,10-.144a13.68,13.68,0,0,0,4.6-.853,8.174,8.174,0,0,0,4.7-4.7,13.68,13.68,0,0,0,.853-4.6c.119-2.61.144-3.393.144-10s-.025-7.391-.144-10a13.68,13.68,0,0,0-.853-4.6,7.686,7.686,0,0,0-1.849-2.846,7.679,7.679,0,0,0-2.846-1.849,13.68,13.68,0,0,0-4.6-.853ZM23.089,33.88a8.258,8.258,0,1,0-5.095-7.629,8.255,8.255,0,0,0,5.095,7.629ZM17.255,17.255a12.722,12.722,0,1,1,0,17.991,12.722,12.722,0,0,1,0-17.991Zm24.538-1.832a3.008,3.008,0,1,0-4.191-.061,3.008,3.008,0,0,0,4.191.061Z" transform="translate(-1.5 -1.5)" fill="#fefefe"/>
</svg>
